<svg xmlns="http://www.w3.org/2000/svg" viewBox="0 0 290 370"><path d="M174.33 74v-.91c.19-31.34-29.51-55.3-29.51-55.3s-29.7 24-29.51 55.3v1.17c-.18 25.14 17.66 41.3 25.27 46.74l4.26-77.1 4.25 77.1c7.61-5.45 25.46-21.6 25.27-46.74a2.26 2.26 0 01-.03-.26zm-72.59 6.69c-.24-.19-.48-.38-.73-.56-24.38-19.69-61.63-11.41-61.63-11.41s.21 38.16 24.83 57.55l.71.58.2.16c19.54 15.81 43.3 11.94 52.3 9.38L59.79 85l62.93 44.74c.49-9.34-1-33.37-20.79-48.9zM61.7 141.6l-.89.22c-30.59 6.79-47.34 41.08-47.34 41.08s30 23.62 60.48 16.47l.89-.19.25-.06c24.55-5.42 36.33-26.41 40-35l-76.12 13 74.22-21.3c-7-6.21-26.72-20-51.19-14.24zm22.66 69.28c-.13.28-.26.55-.38.83-13.77 28.16 2.6 62.63 2.6 62.63s37.16-8.7 50.58-37c.14-.27.27-.54.41-.82l.11-.23c11.07-22.57 2-44.87-2.49-53.07l-37.28 67.6 29.62-71.31c-9.22 1.6-32.31 8.41-43 31.15zm68.3 25.48c.14.27.27.55.41.82 13.43 28.31 50.59 37 50.59 37s16.36-34.48 2.59-62.63l-.39-.83c0-.07-.07-.15-.11-.23C195 187.77 171.92 181 162.7 179.36l29.63 71.31L155 183.05c-4.49 8.21-13.56 30.51-2.49 53.08a2.4 2.4 0 01.15.23zm62.5-37.51l.89.19c30.51 7.15 60.48-16.48 60.48-16.48s-16.75-34.29-47.35-41.07l-.89-.22-.25-.05c-24.47-5.77-44.19 8-51.18 14.23l74.21 21.3-76.11-13c3.62 8.63 15.4 29.62 39.95 35zm9.64-72.26l.7-.58c24.62-19.39 24.83-57.56 24.83-57.56s-37.26-8.27-61.64 11.42l-.72.56-.2.16C168 96.12 166.5 120.14 167 129.49l62.92-44.75-57.62 51.4c9 2.55 32.76 6.43 52.3-9.39z" fill="#649853"/><path d="M36.72 335.69l9 15.89H35.41l-7.5-14.32h-5.07v14.32H14V313.3h17.1A11.54 11.54 0 0143 325.12c0 4.51-2.21 8.76-6.28 10.57zm-6.81-14.88h-7.07v9.07h7.07a4.27 4.27 0 004.44-4.44 4.5 4.5 0 00-4.44-4.63zm49.59 7.25v7.57H64.8v7.44h18.64v8.51H55.92V313.3h27.52v8.51H64.8v6.25zm41.96-11.32l-3.57 7.45a13.79 13.79 0 00-8-2.94c-6.51 0-10.26 4.88-10.26 11.13s3.69 11.13 10.26 11.13a13.46 13.46 0 008-3l3.57 7.5c-2.94 2.69-8.51 4.07-12.32 4.07-11.39 0-18.64-8.63-18.64-19.7s7.25-19.76 18.64-19.76c3.86 0 9.38 1.44 12.32 4.12zm42.21 15.83c0 10.88-6.51 19.63-18 19.63s-18.14-8.75-18.14-19.57c0-11 6.82-19.95 18.2-19.95s17.94 8.88 17.94 19.89zm-26.39.06c0 5.25 1.75 11.82 8.44 11.82s8.25-6.51 8.25-11.7c0-5.62-1.87-12.19-8.31-12.19s-8.38 6.57-8.38 12.07zm58.72-4.57v8.51h-13.26v15h-8.88V313.3h27.51v8.51h-18.63v6.25zm13.94-6.5v-8.26h31.58v8.26H230.2v30h-8.88v-30zm66.06-4.82l-3.57 7.45a13.79 13.79 0 00-8-2.94c-6.51 0-10.26 4.88-10.26 11.13s3.69 11.13 10.26 11.13a13.46 13.46 0 008-3L276 348c-2.94 2.69-8.51 4.07-12.32 4.07-11.38 0-18.64-8.63-18.64-19.7s7.26-19.76 18.64-19.76c3.85.01 9.42 1.45 12.32 4.13z" fill="#1e3a1c"/></svg>